<svg xmlns="http://www.w3.org/2000/svg" height="24" viewBox="0 -960 960 960" width="24"><path d="M185.348-210.769v-55.961h68.268v-291.193q0-80.5 50.005-142.5 50.004-62 127.995-79.807v-23.33q0-20.154 13.952-34.104 13.953-13.95 34.269-13.95 20.317 0 34.432 13.95 14.115 13.95 14.115 34.104v23.33q78.077 17.807 128.134 79.807 50.058 62 50.058 142.5v291.193h68.269v55.961H185.348ZM480-497.692Zm-.068 395.691q-29.355 0-49.989-20.682-20.635-20.683-20.635-50.01h141.384q0 29.423-20.703 50.058-20.702 20.634-50.057 20.634ZM309.576-266.73h341.04v-291.193q0-70.589-50.059-120.506-50.06-49.918-120.644-49.918-70.585 0-120.461 49.918-49.876 49.917-49.876 120.506v291.193Z"/></svg>