<svg xmlns="http://www.w3.org/2000/svg" height="24" viewBox="0 -960 960 960" width="24"><path d="m790.654-88.694-350.46-351.652q-54.231 5.961-101.27 29.115-47.039 23.154-82.001 59.077l-58.114-58.344q35.462-35.462 78.751-60.828 43.289-25.365 93.79-38.365L257.424-623.616q-43.308 18.961-84.981 47.173-41.674 28.212-76.636 63.174l-57.344-58.345q35.846-35.846 75.693-65 39.847-29.155 81.154-49.424l-91.384-91.577 39.229-39.23 688.421 688.421-40.922 39.73ZM480-141.731q-32.307 0-54.518-22.269t-22.211-54.461q0-32.115 22.211-54.422Q447.693-295.19 480-295.19t54.518 22.307q22.211 22.307 22.211 54.422 0 32.192-22.211 54.461T480-141.731Zm231.962-220.307-22.231-22.231-22.23-22.23-108.767-108.767q54.614 7.192 107.555 34.615 52.941 27.422 94.902 69.383l-49.229 49.23Zm152.423-151.231Q788.5-588.962 689.673-630.692 590.846-672.423 480-672.423q-21 0-38.904 1.346-17.904 1.346-34.135 3.846l-71.767-71.767q32.73-8.308 67.768-12.404Q438-755.498 480-755.498q130.615 0 242.999 48.481 112.385 48.48 199.307 135.403l-57.921 58.345Z"/></svg>