<svg xmlns="http://www.w3.org/2000/svg" height="24" viewBox="0 -960 960 960" width="24"><path d="M442.115-150.54q-110.307-13.808-182.576-96.48-72.268-82.673-72.268-193.788 0-60.807 24.48-116.134 24.481-55.326 68.673-96.518l40.037 39.845q-38.154 33-57.692 77.827-19.538 44.827-19.538 94.98 0 87.693 55.942 154Q355.115-220.5 442.115-206.5v55.96Zm75.962.769v-55.96q86.115-16.538 142.654-82.25 56.538-65.711 56.538-152.827 0-98.884-69.192-168.077Q578.885-678.077 480-678.077h-15.77l55.616 55.616-39.23 39.422-122.922-122.922 122.922-122.922 39.23 39.23-55.616 55.616H480q122.307 0 207.768 85.461t85.461 207.768q0 110.807-72.711 193.192-72.711 82.384-182.441 97.845Z"/></svg>